<svg xmlns="http://www.w3.org/2000/svg" viewBox="0 0 720 260" fill="none">
  <rect width="720" height="260" rx="8" fill="#e9e5d9"/>
  <path d="M0 52H720M0 104H720M0 156H720M0 208H720M72 0V260M144 0V260M216 0V260M288 0V260M360 0V260M432 0V260M504 0V260M576 0V260M648 0V260" stroke="#dcd7c9"/>
  <g transform="rotate(-5 360 130)"><rect x="202" y="51" width="316" height="168" rx="5" fill="#faf7ee" stroke="#87918a" stroke-width="2"/><path d="m204 55 156 104L516 55M204 215l110-88m202 88-110-88" stroke="#87918a" stroke-width="2"/><rect x="435" y="66" width="58" height="37" rx="2" fill="#b85336"/><path d="M448 84h32m-16-9v18" stroke="#faf7ee" stroke-width="2"/></g>
  <g transform="rotate(5 140 82)"><rect x="91" y="58" width="99" height="47" fill="#efe4bc"/><text x="108" y="88" font-family="monospace" font-size="20" fill="#172f35">PIÈCE 13</text></g>
</svg>
